<svg xmlns="http://www.w3.org/2000/svg" width="1280" height="720" viewBox="0 0 1280 720" role="img" aria-label="Canna Studio preview">
  <defs>
    <radialGradient id="a" cx="18%" cy="10%" r="55%">
      <stop offset="0" stop-color="#8be9fd" stop-opacity=".45"/>
      <stop offset=".6" stop-color="#070b1f" stop-opacity="0"/>
    </radialGradient>
    <radialGradient id="b" cx="84%" cy="16%" r="50%">
      <stop offset="0" stop-color="#b69cff" stop-opacity=".35"/>
      <stop offset=".7" stop-color="#070b1f" stop-opacity="0"/>
    </radialGradient>
    <linearGradient id="glass" x1="0" x2="1">
      <stop offset="0" stop-color="#ffffff" stop-opacity=".14"/>
      <stop offset="1" stop-color="#ffffff" stop-opacity=".045"/>
    </linearGradient>
    <linearGradient id="button" x1="0" x2="1">
      <stop offset="0" stop-color="#8be9fd"/>
      <stop offset="1" stop-color="#fff1a8"/>
    </linearGradient>
  </defs>
  <rect width="1280" height="720" fill="#070b1f"/>
  <rect width="1280" height="720" fill="url(#a)"/>
  <rect width="1280" height="720" fill="url(#b)"/>
  <g opacity=".24" fill="#fff">
    <circle cx="90" cy="82" r="1.5"/><circle cx="210" cy="132" r="1.2"/><circle cx="386" cy="76" r="1.4"/>
    <circle cx="712" cy="118" r="1.3"/><circle cx="1048" cy="92" r="1.4"/><circle cx="1168" cy="170" r="1.1"/>
    <circle cx="174" cy="500" r="1.4"/><circle cx="928" cy="566" r="1.2"/><circle cx="1190" cy="620" r="1.6"/>
  </g>
  <rect x="54" y="46" width="1172" height="628" rx="30" fill="url(#glass)" stroke="rgba(191,229,255,.28)"/>
  <rect x="78" y="76" width="248" height="568" rx="20" fill="rgba(255,255,255,.075)" stroke="rgba(191,229,255,.22)"/>
  <rect x="352" y="76" width="546" height="568" rx="20" fill="rgba(255,255,255,.06)" stroke="rgba(191,229,255,.22)"/>
  <rect x="924" y="76" width="278" height="568" rx="20" fill="rgba(255,255,255,.075)" stroke="rgba(191,229,255,.22)"/>
  <circle cx="116" cy="120" r="24" fill="#14352e" stroke="#8be9fd"/>
  <text x="108" y="130" fill="#8be9fd" font-family="Arial, sans-serif" font-size="28" font-weight="700">C</text>
  <text x="152" y="116" fill="#f7fbff" font-family="Arial, sans-serif" font-size="26" font-weight="800">Canna</text>
  <text x="152" y="140" fill="#bcc9ea" font-family="Arial, sans-serif" font-size="13">2D genre studio</text>
  <rect x="100" y="180" width="190" height="74" rx="14" fill="rgba(0,0,0,.22)" stroke="rgba(191,229,255,.22)"/>
  <text x="116" y="207" fill="#bcc9ea" font-family="Arial, sans-serif" font-size="13">Make</text>
  <text x="116" y="232" fill="#f7fbff" font-family="Arial, sans-serif" font-size="15">Rainy mystery VN...</text>
  <rect x="100" y="276" width="82" height="34" rx="12" fill="url(#button)"/>
  <text x="122" y="298" fill="#061125" font-family="Arial, sans-serif" font-size="14" font-weight="700">Generate</text>
  <g>
    <rect x="100" y="350" width="82" height="54" rx="12" fill="#8be9fd"/>
    <rect x="198" y="350" width="82" height="54" rx="12" fill="#b69cff"/>
    <rect x="100" y="418" width="82" height="54" rx="12" fill="#fff1a8"/>
    <rect x="198" y="418" width="82" height="54" rx="12" fill="#ffb3d9"/>
  </g>
  <text x="384" y="122" fill="#8be9fd" font-family="Arial, sans-serif" font-size="13" font-weight="700">GAME SEED</text>
  <text x="384" y="162" fill="#f7fbff" font-family="Arial, sans-serif" font-size="34" font-weight="800">2D genre vibe coding tool</text>
  <text x="384" y="198" fill="#bcc9ea" font-family="Arial, sans-serif" font-size="17">Turn an idea into editable game structures.</text>
  <g fill="rgba(255,255,255,.075)" stroke="rgba(191,229,255,.22)">
    <rect x="384" y="240" width="220" height="124" rx="16"/>
    <rect x="626" y="240" width="220" height="124" rx="16"/>
    <rect x="384" y="390" width="220" height="124" rx="16"/>
    <rect x="626" y="390" width="220" height="124" rx="16"/>
  </g>
  <text x="410" y="284" fill="#f7fbff" font-family="Arial, sans-serif" font-size="20" font-weight="700">Visual Novel</text>
  <text x="652" y="284" fill="#f7fbff" font-family="Arial, sans-serif" font-size="20" font-weight="700">Roguelike</text>
  <text x="410" y="434" fill="#f7fbff" font-family="Arial, sans-serif" font-size="20" font-weight="700">Feature Atlas</text>
  <text x="652" y="434" fill="#f7fbff" font-family="Arial, sans-serif" font-size="20" font-weight="700">JSON Export</text>
  <rect x="954" y="116" width="218" height="252" rx="18" fill="rgba(0,0,0,.24)" stroke="rgba(191,229,255,.22)"/>
  <text x="982" y="154" fill="#8be9fd" font-family="Arial, sans-serif" font-size="13" font-weight="700">LIVE PREVIEW</text>
  <circle cx="1064" cy="252" r="42" fill="#ffb3d9"/>
  <rect x="982" y="406" width="190" height="168" rx="14" fill="rgba(0,0,0,.24)" stroke="rgba(191,229,255,.22)"/>
  <text x="1004" y="446" fill="#bcc9ea" font-family="monospace" font-size="14">{</text>
  <text x="1024" y="476" fill="#8be9fd" font-family="monospace" font-size="14">"genre": "vn"</text>
  <text x="1024" y="506" fill="#fff1a8" font-family="monospace" font-size="14">"theme": "crystal"</text>
  <text x="1004" y="536" fill="#bcc9ea" font-family="monospace" font-size="14">}</text>
</svg>
